<svg xmlns="http://www.w3.org/2000/svg" width="17.25" height="20" viewBox="0 0 17.25 20">
  <g id="グループ_172" data-name="グループ 172" transform="translate(68.25 146) rotate(180)">
    <path id="Icon_ionic-ios-arrow-back" data-name="Icon ionic-ios-arrow-back" d="M14.115,16.191,20.4,8.63a1.634,1.634,0,0,0,0-2.018,1.056,1.056,0,0,0-1.682,0L11.6,15.179a1.643,1.643,0,0,0-.035,1.971l7.155,8.627a1.057,1.057,0,0,0,1.682,0,1.634,1.634,0,0,0,0-2.018Z" transform="translate(39.75 119.806)" fill="#eaeaea"/>
    <path id="Icon_ionic-ios-arrow-back-2" data-name="Icon ionic-ios-arrow-back" d="M14.115,16.191,20.4,8.63a1.634,1.634,0,0,0,0-2.018,1.056,1.056,0,0,0-1.682,0L11.6,15.179a1.643,1.643,0,0,0-.035,1.971l7.155,8.627a1.057,1.057,0,0,0,1.682,0,1.634,1.634,0,0,0,0-2.018Z" transform="translate(47.497 119.806)" fill="#eaeaea"/>
  </g>
</svg>
