<svg xmlns="http://www.w3.org/2000/svg" width="15" height="12" viewBox="0 0 15 12">
  <g id="グループ_170" data-name="グループ 170" transform="translate(66 138) rotate(180)">
    <path id="Icon_ionic-ios-arrow-back" data-name="Icon ionic-ios-arrow-back" d="M14.115,12.192,20.4,7.655a.7.7,0,0,0,0-1.211,1.538,1.538,0,0,0-1.682,0L11.6,11.585a.7.7,0,0,0-.035,1.182l7.155,5.176a1.54,1.54,0,0,0,1.682,0,.7.7,0,0,0,0-1.211Z" transform="translate(39.75 119.806)" fill="#eaeaea"/>
    <path id="Icon_ionic-ios-arrow-back-2" data-name="Icon ionic-ios-arrow-back" d="M14.115,12.192,20.4,7.655a.7.7,0,0,0,0-1.211,1.538,1.538,0,0,0-1.682,0L11.6,11.585a.7.7,0,0,0-.035,1.182l7.155,5.176a1.54,1.54,0,0,0,1.682,0,.7.7,0,0,0,0-1.211Z" transform="translate(45.247 119.806)" fill="#eaeaea"/>
  </g>
</svg>
